<svg width="46" height="42" viewBox="0 0 46 42" fill="none" xmlns="http://www.w3.org/2000/svg">
<path d="M1.25012 33.0839C1.25 32.9278 1.25 32.7668 1.25 32.6008V9.4008C1.25 6.69388 1.25 5.33941 1.7768 4.3055C2.24019 3.39605 2.97906 2.65718 3.88851 2.19379C4.92242 1.66699 6.27689 1.66699 8.98381 1.66699H37.0171C39.7241 1.66699 41.0768 1.66699 42.1107 2.19379C43.0202 2.65718 43.7603 3.39605 44.2237 4.3055C44.75 5.3384 44.75 6.69123 44.75 9.39286V32.6078C44.75 33.7799 44.75 34.6978 44.707 35.4457M1.25012 33.0839C1.25198 35.4723 1.28231 36.7227 1.7768 37.6932C2.24019 38.6026 2.97906 39.344 3.88851 39.8074C4.9214 40.3337 6.27424 40.3337 8.97587 40.3337H37.0253C39.7269 40.3337 41.0778 40.3337 42.1107 39.8074C43.0202 39.344 43.7603 38.6026 44.2237 37.6932C44.5217 37.1084 44.6509 36.4217 44.707 35.4457M1.25012 33.0839L12.7726 19.641L12.776 19.6372C13.798 18.4449 14.3098 17.8478 14.9169 17.6326C15.4502 17.4435 16.0324 17.4479 16.563 17.6444C17.1677 17.8682 17.6714 18.4722 18.6788 19.6811L25.1341 27.4275C26.0666 28.5465 26.5356 29.1093 27.105 29.3351C27.6073 29.5343 28.1612 29.5568 28.6794 29.4039C29.2693 29.2298 29.7886 28.7106 30.827 27.6721L32.0283 26.4709C33.0856 25.4136 33.6142 24.8853 34.2126 24.7126C34.7381 24.561 35.2999 24.5936 35.8055 24.8023C36.3811 25.04 36.848 25.6219 37.782 26.7895L44.707 35.4457M44.707 35.4457L44.75 35.4994M30.25 16.167C28.9153 16.167 27.8333 15.085 27.8333 13.7503C27.8333 12.4156 28.9153 11.3337 30.25 11.3337C31.5847 11.3337 32.6667 12.4156 32.6667 13.7503C32.6667 15.085 31.5847 16.167 30.25 16.167Z" stroke="black" stroke-opacity="0.5" stroke-width="2" stroke-linecap="round" stroke-linejoin="round"/>
</svg>
