<svg width="32" height="32" viewBox="0 0 32 32" fill="none" xmlns="http://www.w3.org/2000/svg">
<g clip-path="url(#clip0_263_3577)">
<path d="M16 4C18.2092 4 20 5.79087 20 8C20 9.74163 18.8869 11.2233 17.3333 11.7724V14.6667H21.3333C23.5425 14.6667 25.3333 16.4575 25.3333 18.6667V20.2276C26.8869 20.7767 28 22.2584 28 24C28 26.2092 26.2091 28 24 28C21.7909 28 20 26.2092 20 24C20 22.2584 21.1131 20.7767 22.6667 20.2276V18.6667C22.6667 17.9303 22.0697 17.3333 21.3333 17.3333H10.6667C9.93027 17.3333 9.33333 17.9303 9.33333 18.6667V20.2276C10.8869 20.7767 12 22.2584 12 24C12 26.2092 10.2092 28 8 28C5.7908 28 4 26.2092 4 24C4 22.2584 5.11307 20.7767 6.66667 20.2276V18.6667C6.66667 16.4575 8.45747 14.6667 10.6667 14.6667H14.6667V11.7724C13.1131 11.2233 12 9.74163 12 8C12 5.79087 13.7908 4 16 4Z" fill="#808080"/>
</g>
<defs>
<clipPath id="clip0_263_3577">
<rect width="32" height="32" fill="white" transform="matrix(-1 0 0 1 32 0)"/>
</clipPath>
</defs>
</svg>
