<svg width="26" height="18" viewBox="0 0 26 18" fill="none" xmlns="http://www.w3.org/2000/svg">
<path d="M4.61332 13.7009C3.31389 14.4125 2.57164 15.6802 2.66467 16.948C2.72702 17.7209 2.7577 17.7526 3.74736 17.8763C4.3659 17.9693 8.2632 18 12.2832 18C16.8297 18 21.592 17.907 21.9324 17.8139C23.2932 17.4735 22.551 14.9993 20.7567 13.8246C19.3652 12.928 16.52 11.5672 15.746 11.4118C14.694 11.1951 14.5703 10.5459 15.746 8.44282C16.0241 7.97867 16.3339 6.55652 16.3646 5.07203C16.3953 2.65923 15.9311 1.02034 13.8281 0.216736C13.3946 0.0623487 12.9621 0 12.5603 0C11.1688 0 9.86942 0.772927 9.34391 1.91797C8.57098 3.43314 8.87976 7.48483 9.68435 8.93864C10.6127 10.5775 10.5196 11.104 9.4983 11.3821C8.81741 11.5682 6.71437 12.5578 4.61134 13.7019L4.61332 13.7009ZM21.4376 12.7736C21.9324 13.114 22.3966 13.5465 22.7677 13.98C23.9434 13.98 24.8401 13.9493 24.9331 13.9176C25.706 13.7316 25.2735 12.3094 24.2522 11.6909C23.4793 11.1961 21.9017 10.4231 21.4683 10.3301C20.9111 10.2064 20.7874 9.86596 21.4683 8.69123C21.6227 8.44381 21.8087 7.63921 21.8087 6.80493C21.8394 5.44414 21.5613 4.51583 20.3856 4.11403C19.3959 3.74291 18.2825 4.20706 17.8807 5.04234C17.4789 5.90829 17.6947 8.13503 18.1282 8.93963C18.623 9.89861 18.53 10.146 17.9738 10.3004C17.8501 10.3311 17.6027 10.4548 17.2622 10.6102C18.623 11.1674 20.4786 12.1877 21.4376 12.7756V12.7736ZM1.08714 11.5979C0.344896 11.9997 -0.0569057 12.6806 0.00445175 13.3921C0.0351315 13.8256 0.0351315 13.8563 0.592312 13.9176C0.7467 13.9483 1.45827 13.98 2.38657 13.98C2.78838 13.4545 3.34556 12.9596 4.02546 12.6192C5.29321 11.877 6.84006 11.0724 7.98411 10.5775C7.67435 10.4538 7.39625 10.3608 7.27254 10.3301C6.68468 10.2064 6.59165 9.86596 7.27254 8.69123C7.39625 8.44381 7.61299 7.63921 7.61299 6.80493C7.64367 5.44414 7.39625 4.51583 6.22152 4.11403C5.20118 3.74291 4.0878 4.20706 3.71668 5.04234C3.31488 5.90829 3.46926 8.13503 3.90274 8.93963C4.39757 9.89861 4.33621 10.146 3.80971 10.3004C3.43859 10.4241 2.26287 10.9813 1.08813 11.5998L1.08714 11.5979Z" fill="#808080"/>
</svg>
