<svg width="20" height="23" viewBox="0 0 20 23" fill="none" xmlns="http://www.w3.org/2000/svg">
<path d="M15.2383 6.79145C15.1144 6.59479 14.9641 6.46073 14.8242 6.37003C14.8235 6.12591 14.8078 5.78067 14.7513 5.38251C14.7895 4.90742 14.9229 2.29146 13.3661 1.112C12.4058 0.384487 11.3366 0 10.274 0C9.4104 0 8.58793 0.252326 7.95798 0.71047C7.39066 1.12316 7.0782 1.57204 6.9128 1.88803C6.42358 1.90581 5.41002 2.11089 4.96174 3.43955C4.53761 4.69634 4.88006 5.47279 5.13194 5.83265C5.11546 6.04079 5.10953 6.22377 5.10912 6.36993C4.96921 6.46063 4.81896 6.59468 4.69502 6.79135C4.41458 7.23634 4.36689 7.83306 4.55316 8.56531C4.90145 9.93448 5.7142 10.2358 6.14785 10.2963C6.41498 10.8454 7.00205 11.9675 7.58953 12.5313C7.82421 12.7565 8.12931 12.9465 8.49633 13.0963C8.96478 13.2874 9.45953 13.3843 9.96667 13.3843C10.4738 13.3843 10.9686 13.2874 11.437 13.0963C11.804 12.9465 12.1091 12.7565 12.3438 12.5313C12.9313 11.9675 13.5184 10.8454 13.7855 10.2963C14.219 10.2358 15.0318 9.93438 15.3802 8.56521C15.5664 7.83317 15.5187 7.23634 15.2383 6.79145ZM14.3899 8.2991C14.1777 9.13373 13.7983 9.25832 13.5909 9.25832C13.5762 9.25832 13.5651 9.25747 13.5586 9.25695C13.3217 9.19539 13.1027 9.32334 12.9991 9.55241C12.7965 10.0002 12.158 11.2703 11.6455 11.7622C11.5045 11.8974 11.3073 12.0174 11.0594 12.1185C10.3639 12.4023 9.56935 12.4023 8.87389 12.1185C8.62601 12.0174 8.42878 11.8974 8.28785 11.7622C7.77529 11.2703 7.13684 10.0002 6.93419 9.55241C6.84801 9.36196 6.68231 9.24169 6.49266 9.24169C6.45418 9.24169 6.41467 9.24664 6.37465 9.25705C6.3681 9.25768 6.35705 9.25842 6.34241 9.25842C6.13516 9.25842 5.75575 9.13373 5.54338 8.29931C5.43888 7.88862 5.43981 7.56106 5.54584 7.37713C5.60755 7.27022 5.69516 7.23423 5.72382 7.22497C5.99842 7.19435 6.16382 6.94718 6.14089 6.66234C6.14038 6.6554 6.12247 6.41086 6.14519 6.03868C6.49737 5.88306 7.06008 5.57612 7.53446 5.04937C7.7759 4.78115 7.95256 4.45254 8.07834 4.15107C8.42131 4.43897 8.90685 4.77726 9.54929 5.06957C10.6496 5.57023 12.8487 5.80835 13.777 5.88968C13.8154 6.34394 13.793 6.65392 13.7923 6.66129C13.7682 6.94697 13.9339 7.19435 14.2094 7.22497C14.2381 7.23423 14.3257 7.27032 14.3874 7.37713C14.4935 7.56095 14.4944 7.88851 14.3899 8.2991ZM17.6716 15.3258L13.1975 13.486C13.0687 13.4332 12.9247 13.4362 12.798 13.4944C12.6715 13.5528 12.5734 13.6615 12.5263 13.7956L11.4016 16.9925L11.1789 16.3342L11.5332 15.4437C11.5977 15.2814 11.5795 15.0968 11.4844 14.9511C11.3893 14.8056 11.2301 14.7183 11.0595 14.7183H8.87389C8.70338 14.7183 8.54403 14.8056 8.44905 14.9511C8.35396 15.0968 8.33575 15.2814 8.40023 15.4437L8.75456 16.3342L8.53185 16.9925L7.40714 13.7956C7.36006 13.6615 7.26191 13.5527 7.13541 13.4944C7.0087 13.4361 6.86459 13.4331 6.73594 13.486L2.26169 15.3258C0.887768 15.8908 0 17.239 0 18.7604V22.4739C0 22.7645 0.229157 23 0.511741 23H19.4216C19.7042 23 19.9333 22.7645 19.9333 22.4739V18.7604C19.9333 17.239 19.0456 15.8909 17.6716 15.3258ZM17.5162 20.2785C17.5162 20.5691 17.287 20.8046 17.0044 20.8046H13.5686C13.286 20.8046 13.0569 20.5691 13.0569 20.2785V18.6381C13.0569 18.3474 13.286 18.1119 13.5686 18.1119H17.0044C17.287 18.1119 17.5162 18.3474 17.5162 18.6381V20.2785Z" fill="black" fill-opacity="0.5"/>
</svg>
