<svg width="30" height="30" viewBox="0 0 30 30" fill="none" xmlns="http://www.w3.org/2000/svg">
<path fill-rule="evenodd" clip-rule="evenodd" d="M9.37668 8.82875C9.37668 12.8225 11.7892 16.25 15.0017 16.25C18.2167 16.25 20.6267 12.8225 20.6267 8.8275C20.6267 4.835 18.5517 2.5 15.0017 2.5C11.4517 2.5 9.37668 4.83375 9.37668 8.82875ZM24.8742 25.1775C24.3929 25.75 22.3204 27.5 15.0017 27.5C7.68293 27.5 5.61168 25.75 5.12918 25.1787C5.08443 25.1238 5.05137 25.0604 5.03202 24.9922C5.01268 24.9241 5.00746 24.8527 5.01668 24.7825C5.12668 23.68 6.11918 18.75 15.0017 18.75C23.8842 18.75 24.8767 23.68 24.9879 24.7825C24.997 24.8528 24.9916 24.9242 24.972 24.9924C24.9524 25.0605 24.9192 25.1227 24.8742 25.1775Z" fill="black" fill-opacity="0.5"/>
</svg>
