<svg width="25" height="25" viewBox="0 0 25 25" fill="none" xmlns="http://www.w3.org/2000/svg">
<path d="M7.47134 16.2918C6.77343 15.8335 5.85676 16.3335 5.85676 17.1668V18.5106C5.85676 19.8335 6.88801 21.2502 8.1276 21.6668L11.4505 22.771C12.0338 22.9689 12.9818 22.9689 13.5547 22.771L16.8776 21.6668C18.1276 21.2502 19.1484 19.8335 19.1484 18.5106V17.1564C19.1484 16.3335 18.2318 15.8335 17.5443 16.2814L15.3984 17.6772C14.5755 18.2293 13.5338 18.5002 12.4922 18.5002C11.4505 18.5002 10.4088 18.2293 9.58593 17.6772L7.47134 16.2918Z" fill="black" fill-opacity="0.5"/>
<path d="M4.19014 6.72754L10.4297 2.63379C11.5547 1.89421 13.4089 1.89421 14.5339 2.63379L20.8047 6.72754C22.8151 8.02962 22.8151 10.9776 20.8047 12.2901L19.138 13.3734L14.5339 16.3734C13.4089 17.113 11.5547 17.113 10.4297 16.3734L5.8568 13.3734L4.42972 12.4359V15.6234C4.42972 16.0505 4.07555 16.4046 3.64847 16.4046C3.22139 16.4046 2.86722 16.0505 2.86722 15.6234V10.4984C2.45055 9.15462 2.87764 7.59212 4.19014 6.72754Z" fill="black" fill-opacity="0.5"/>
</svg>
