<svg width="28" height="28" viewBox="0 0 28 28" fill="none" xmlns="http://www.w3.org/2000/svg">
<g clip-path="url(#clip0_263_3601)">
<path d="M9.15551 15.1723C8.9535 15.2893 8.91456 15.5641 9.07961 15.7291L13.7553 20.4048C13.8931 20.5426 14.1164 20.5426 14.2542 20.4048L18.93 15.7291C19.095 15.5641 19.056 15.2893 18.854 15.1723C15.8606 13.4402 12.1541 13.4371 9.15551 15.1723Z" fill="black" fill-opacity="0.5"/>
<path d="M20.6355 16.4983C20.4966 16.3682 20.2791 16.3723 20.1445 16.5069L14.5003 22.1511C14.2247 22.4266 13.7781 22.4266 13.5024 22.1511L7.85824 16.5069C7.7237 16.3723 7.50616 16.3682 7.3672 16.4983C5.47397 18.2717 4.28906 20.7925 4.28906 23.585V26.9417C4.28906 27.5262 4.76293 28.0001 5.34743 28.0001H22.6552C23.2397 28.0001 23.7135 27.5262 23.7135 26.9417V23.585C23.7136 20.7925 22.5287 18.2717 20.6355 16.4983Z" fill="black" fill-opacity="0.5"/>
<path d="M8.54274 13.0381C9.02213 13.0381 18.9872 13.0381 19.4665 13.0381C20.051 13.0381 20.5249 12.5642 20.5249 11.9797V6.51779C20.5249 6.51779 20.5249 6.51773 20.5249 6.51762C20.5249 3.23906 18.0906 0.504743 14.9379 0.0644548H14.9379C10.9493 -0.488052 7.48438 2.58347 7.48438 6.51762C7.48438 6.51762 7.48438 6.51768 7.48438 6.51779V11.9797C7.48438 12.5642 7.95813 13.0381 8.54274 13.0381ZM10.6421 3.67771C12.2111 6.33048 15.5046 7.52239 18.408 6.49443C18.4081 6.50214 18.4081 6.50991 18.4081 6.51762C18.4081 8.94574 16.4327 10.9211 14.0046 10.9211C11.5765 10.9211 9.60105 8.94569 9.60105 6.51762C9.60111 5.46013 9.98354 4.45831 10.6421 3.67771Z" fill="black" fill-opacity="0.5"/>
</g>
<defs>
<clipPath id="clip0_263_3601">
<rect width="28" height="28" fill="white"/>
</clipPath>
</defs>
</svg>
