<svg width="25" height="25" viewBox="0 0 25 25" fill="none" xmlns="http://www.w3.org/2000/svg">
<path d="M9.37494 25H1.04166C0.765394 25 0.500444 24.8903 0.305095 24.695C0.109746 24.4997 0 24.2348 0 23.9586C0 23.6824 0.109746 23.4176 0.305095 23.2223C0.500444 23.027 0.765394 22.9172 1.04166 22.9172H9.37494C9.6512 22.9172 9.91615 23.027 10.1115 23.2223C10.3069 23.4176 10.4166 23.6824 10.4166 23.9586C10.4166 24.2348 10.3069 24.4997 10.1115 24.695C9.91615 24.8903 9.6512 25 9.37494 25ZM7.29162 20.8345H1.04166C0.765394 20.8345 0.500444 20.7248 0.305095 20.5295C0.109746 20.3342 0 20.0693 0 19.7931C0 19.5169 0.109746 19.2521 0.305095 19.0568C0.500444 18.8615 0.765394 18.7517 1.04166 18.7517H7.29162C7.56788 18.7517 7.83283 18.8615 8.02818 19.0568C8.22353 19.2521 8.33328 19.5169 8.33328 19.7931C8.33328 20.0693 8.22353 20.3342 8.02818 20.5295C7.83283 20.7248 7.56788 20.8345 7.29162 20.8345ZM5.2083 16.669H1.04166C0.765394 16.669 0.500444 16.5593 0.305095 16.364C0.109746 16.1687 0 15.9038 0 15.6276C0 15.3514 0.109746 15.0866 0.305095 14.8913C0.500444 14.696 0.765394 14.5862 1.04166 14.5862H5.2083C5.48456 14.5862 5.74951 14.696 5.94486 14.8913C6.14021 15.0866 6.24996 15.3514 6.24996 15.6276C6.24996 15.9038 6.14021 16.1687 5.94486 16.364C5.74951 16.5593 5.48456 16.669 5.2083 16.669ZM13.5416 24.9531C13.2653 24.9654 12.9955 24.8675 12.7914 24.6809C12.5874 24.4943 12.4659 24.2343 12.4536 23.9581C12.4413 23.6819 12.5392 23.4122 12.7259 23.2082C12.9125 23.0042 13.1726 22.8827 13.4489 22.8704C15.4202 22.6901 17.2993 21.9519 18.8661 20.7424C20.4329 19.5329 21.6225 17.9021 22.2956 16.0411C22.9687 14.18 23.0975 12.1657 22.6668 10.2341C22.2361 8.30255 21.2637 6.53365 19.8637 5.13462C18.4636 3.73558 16.6938 2.76433 14.7615 2.33463C12.8292 1.90494 10.8144 2.03458 8.95314 2.70838C7.09188 3.38217 5.46119 4.57223 4.25208 6.13915C3.04297 7.70608 2.30549 9.585 2.12603 11.5558C2.11372 11.692 2.07469 11.8245 2.01118 11.9456C1.94766 12.0668 1.86091 12.1742 1.75586 12.2618C1.65082 12.3494 1.52954 12.4155 1.39895 12.4562C1.26837 12.497 1.13103 12.5116 0.994785 12.4993C0.85854 12.487 0.726053 12.448 0.60489 12.3845C0.483727 12.321 0.37626 12.2343 0.288625 12.1293C0.20099 12.0242 0.134904 11.903 0.0941395 11.7724C0.0533747 11.6419 0.03873 11.5046 0.0510413 11.3684C0.341549 8.1644 1.85687 5.19585 4.28156 3.08067C6.70626 0.965498 9.85352 -0.133326 13.0682 0.0129324C16.2829 0.159191 19.3173 1.53926 21.5398 3.86587C23.7623 6.19248 25.0016 9.28636 24.9998 12.5035C25.0158 15.6259 23.8555 18.6399 21.7497 20.9459C19.644 23.252 16.7471 24.6811 13.6353 24.949C13.6041 24.9521 13.5718 24.9531 13.5416 24.9531ZM12.4999 6.25524C12.2237 6.25524 11.9587 6.36495 11.7634 6.56025C11.568 6.75554 11.4583 7.02042 11.4583 7.29661V12.5035C11.4583 12.7797 11.5681 13.0445 11.7635 13.2397L14.8884 16.3639C15.0849 16.5536 15.348 16.6585 15.6211 16.6562C15.8943 16.6538 16.1555 16.5443 16.3487 16.3512C16.5418 16.1581 16.6513 15.8969 16.6537 15.6239C16.6561 15.3508 16.5511 15.0878 16.3614 14.8914L13.5416 12.0724V7.29661C13.5416 7.02042 13.4318 6.75554 13.2365 6.56025C13.0411 6.36495 12.7762 6.25524 12.4999 6.25524Z" fill="black" fill-opacity="0.5"/>
</svg>
