<svg width="64" height="58" viewBox="0 0 64 58" fill="none" xmlns="http://www.w3.org/2000/svg">
<path d="M1.25017 46.0839C1.25 45.8633 1.25 45.6357 1.25 45.401V12.601C1.25 8.77397 1.25 6.85903 1.99479 5.3973C2.64992 4.11152 3.69453 3.06692 4.98031 2.41178C6.44204 1.66699 8.35698 1.66699 12.184 1.66699H51.8173C55.6444 1.66699 57.5569 1.66699 59.0186 2.41178C60.3044 3.06692 61.3508 4.11152 62.0059 5.3973C62.75 6.8576 62.75 8.77022 62.75 12.5898V45.4109C62.75 47.068 62.75 48.3657 62.6892 49.4231M1.25017 46.0839C1.2528 49.4607 1.29568 51.2285 1.99479 52.6006C2.64992 53.8864 3.69453 54.9345 4.98031 55.5896C6.44061 56.3337 8.35323 56.3337 12.1728 56.3337H51.8289C55.6484 56.3337 57.5583 56.3337 59.0186 55.5896C60.3044 54.9345 61.3508 53.8864 62.0059 52.6006C62.4272 51.7738 62.6099 50.803 62.6892 49.4231M1.25017 46.0839L17.5406 27.0785L17.5454 27.0732C18.9903 25.3875 19.7139 24.5433 20.5722 24.239C21.3261 23.9717 22.1493 23.978 22.8995 24.2557C23.7543 24.5722 24.4664 25.4261 25.8907 27.1352L35.0172 38.087C36.3356 39.669 36.9986 40.4647 37.8036 40.784C38.5137 41.0657 39.2968 41.0974 40.0295 40.8812C40.8635 40.6351 41.5977 39.901 43.0658 38.4329L44.7641 36.7345C46.2589 35.2398 47.0063 34.4929 47.8523 34.2488C48.5952 34.0344 49.3896 34.0804 50.1043 34.3756C50.9182 34.7116 51.5782 35.5343 52.8987 37.185L62.6892 49.4231M62.6892 49.4231L62.7499 49.499M42.25 22.167C40.363 22.167 38.8333 20.6373 38.8333 18.7503C38.8333 16.8634 40.363 15.3337 42.25 15.3337C44.137 15.3337 45.6667 16.8634 45.6667 18.7503C45.6667 20.6373 44.137 22.167 42.25 22.167Z" stroke="white" stroke-width="2" stroke-linecap="round" stroke-linejoin="round"/>
</svg>
