<svg width="13" height="13" viewBox="0 0 13 13" fill="none" xmlns="http://www.w3.org/2000/svg">
<path d="M5.92016 2.15969H3.62409C2.70557 2.15969 2.24631 2.15969 1.89549 2.33845C1.58689 2.49569 1.33599 2.74658 1.17875 3.05518C1 3.406 1 3.86526 1 4.78378V9.37591C1 10.2945 1 10.7537 1.17875 11.1045C1.33599 11.4131 1.58689 11.664 1.89549 11.8212C2.24631 12 2.70557 12 3.62409 12H8.21623C9.13477 12 9.59399 12 9.94485 11.8212C10.2535 11.664 10.5043 11.4131 10.6616 11.1045C10.8403 10.7537 10.8403 10.2945 10.8403 9.37591V7.07984M4.28009 8.71989H5.19554C5.46297 8.71989 5.59669 8.71989 5.72253 8.68972C5.83406 8.66293 5.94072 8.61876 6.03857 8.55878C6.14889 8.49116 6.24347 8.39664 6.43257 8.20754L11.6603 2.97972C12.1132 2.52683 12.1132 1.79255 11.6603 1.33967C11.2075 0.886778 10.4732 0.886778 10.0203 1.33966L4.79248 6.56749C4.60338 6.75658 4.50883 6.85111 4.44121 6.96148C4.38126 7.05928 4.33709 7.16594 4.3103 7.27752C4.28009 7.40331 4.28009 7.53703 4.28009 7.80447V8.71989Z" stroke="black" stroke-linecap="round" stroke-linejoin="round"/>
</svg>
