<svg width="24" height="24" viewBox="0 0 24 24" fill="none" xmlns="http://www.w3.org/2000/svg">
<path d="M8.66973 1.67629C8.26477 0.66387 7.28424 0 6.19385 0H2.52625C1.13104 0 0 1.1308 0 2.52604C0 14.3856 9.61412 24 21.4734 24C22.8686 24 23.9994 22.8688 23.9994 21.4736L24 17.8053C24 16.7149 23.3363 15.7345 22.3239 15.3295L18.8088 13.9239C17.8994 13.5602 16.8639 13.7239 16.1115 14.3509L15.2043 15.1076C14.1448 15.9905 12.5859 15.9203 11.6106 14.9451L9.05606 12.3881C8.08084 11.4128 8.00877 9.85512 8.8917 8.79559L9.64819 7.8884C10.2752 7.13595 10.4404 6.10022 10.0766 5.19079L8.66973 1.67629Z" fill="#D9D9D9"/>
</svg>
