<svg width="14" height="11" viewBox="0 0 14 11" fill="none" xmlns="http://www.w3.org/2000/svg">
<path d="M0.806933 4.72033C0.806933 4.72033 6.60454 2.33847 8.6156 1.50089C9.38338 1.16935 11.9964 0.0962054 11.9964 0.0962054C11.9964 0.0962054 13.2048 -0.374932 13.0914 0.768012C13.0565 1.23479 12.786 2.87504 12.5199 4.65053C12.1186 7.16327 11.6824 9.91157 11.6824 9.91157C11.6824 9.91157 11.6169 10.6837 11.0454 10.8146C10.474 10.9455 9.54042 10.3478 9.37029 10.2126C9.20016 10.0773 6.87065 8.60722 6.00253 7.85252C5.91405 7.79241 5.84213 7.71097 5.79342 7.61573C5.7447 7.52049 5.72076 7.41452 5.7238 7.30758C5.72685 7.20065 5.75677 7.09621 5.81083 7.00389C5.86488 6.91158 5.94131 6.83436 6.03307 6.77938C7.24145 5.67133 8.68104 4.31899 9.55351 3.44652C9.95485 3.04518 10.3562 2.10726 8.68104 3.24585C6.30354 4.8861 3.95657 6.42602 3.95657 6.42602C3.71551 6.53536 3.45482 6.59482 3.19018 6.60082C2.92554 6.60681 2.66243 6.55923 2.41665 6.46092C1.40894 6.15992 0.23546 5.75858 0.23546 5.75858C0.23546 5.75858 -0.571581 5.25691 0.80257 4.72033H0.806933Z" fill="#fff" fill-opacity="1"/>
</svg>
