<svg width="17" height="12" viewBox="0 0 17 12" fill="none" xmlns="http://www.w3.org/2000/svg">
<path d="M16.1383 3.54385C16.1383 2.60488 15.7657 1.70429 15.1022 1.03984C14.4388 0.375395 13.5387 0.00140564 12.5998 0L3.54385 0C2.60396 0 1.70257 0.373369 1.03797 1.03797C0.373369 1.70257 0 2.60396 0 3.54385L0 7.75615C0 8.69604 0.373369 9.59743 1.03797 10.262C1.70257 10.9266 2.60396 11.3 3.54385 11.3H12.5998C13.5387 11.2986 14.4388 10.9246 15.1022 10.2602C15.7657 9.59571 16.1383 8.69512 16.1383 7.75615V3.54385ZM10.8331 5.963L6.75347 7.95775C6.59432 8.04263 6.05319 7.95775 6.05319 7.74554V3.63934C6.05319 3.45366 6.58371 3.34225 6.75878 3.43244L10.6422 5.55451C10.8066 5.63939 10.9764 5.87282 10.8119 5.963H10.8331Z" fill="#fff" fill-opacity="1"/>
</svg>
