<svg width="73" height="14" viewBox="0 0 73 14" fill="none" xmlns="http://www.w3.org/2000/svg">
<g clip-path="url(#clip0_266_4328)">
<path fill-rule="evenodd" clip-rule="evenodd" d="M43.8228 8.76455L46.254 7.75695C46.1194 7.42108 45.72 7.18262 45.2443 7.18262C44.6362 7.18262 43.7936 7.71552 43.8228 8.76455ZM46.677 9.73968L47.606 10.3554C47.3576 10.7279 47.0203 11.0329 46.6246 11.2432C46.2288 11.4535 45.7869 11.5623 45.3385 11.5601C43.7936 11.5601 42.6772 10.3666 42.6772 8.84627C42.6772 7.23076 43.7992 6.13136 45.2061 6.13136C46.6131 6.13136 47.3087 7.25091 47.5353 7.85771L47.6587 8.16559L44.0225 9.66802C44.3007 10.2121 44.7327 10.4909 45.3408 10.4909C45.9489 10.4909 46.3685 10.1875 46.677 9.73968ZM40.7823 11.3966H41.9783V3.41868H40.7823V11.3966ZM38.8323 8.85523C38.8323 7.90025 38.1917 7.19941 37.3738 7.19941C36.5559 7.19941 35.858 7.90025 35.858 8.85523C35.858 9.81021 36.5491 10.4909 37.3738 10.4909C38.1984 10.4909 38.8323 9.80237 38.8323 8.85523ZM39.8836 6.29705V11.1716C39.8836 13.1756 38.6999 13.9996 37.3031 13.9996C36.7869 14.0018 36.2817 13.8505 35.852 13.5649C35.4224 13.2794 35.0878 12.8725 34.8909 12.3964L35.9309 11.9653C36.116 12.4132 36.5716 12.9326 37.3031 12.9326C38.2006 12.9326 38.756 12.3729 38.756 11.3384V10.9488H38.7111C38.5315 11.1493 38.3103 11.3084 38.0629 11.4151C37.8155 11.5218 37.5478 11.5736 37.2784 11.5668C35.9186 11.5668 34.6698 10.3857 34.6698 8.86195C34.6698 7.33824 35.9152 6.13584 37.2784 6.13584C37.5467 6.12935 37.8134 6.18013 38.0605 6.28478C38.3075 6.38942 38.5294 6.54552 38.7111 6.74263H38.7526V6.30041H39.8858L39.8836 6.29705ZM26.8397 8.84403C26.8397 7.86778 26.1407 7.19941 25.3329 7.19941C24.5251 7.19941 23.8262 7.87114 23.8262 8.84403C23.8262 9.81692 24.5251 10.4875 25.3329 10.4875C26.1407 10.4875 26.8397 9.81133 26.8397 8.84403ZM28.0155 8.84403C28.0228 9.20009 27.9589 9.55403 27.8273 9.88511C27.6958 10.2162 27.4994 10.5178 27.2497 10.7721C26.9999 11.0265 26.7018 11.2286 26.3727 11.3666C26.0437 11.5046 25.6904 11.5756 25.3335 11.5756C24.9766 11.5756 24.6233 11.5046 24.2943 11.3666C23.9652 11.2286 23.6671 11.0265 23.4173 10.7721C23.1675 10.5178 22.9712 10.2162 22.8397 9.88511C22.7081 9.55403 22.6442 9.20009 22.6515 8.84403C22.6515 7.26994 23.8564 6.12912 25.3329 6.12912C26.8094 6.12912 28.0155 7.27666 28.0155 8.84403ZM32.8489 8.84403C32.8489 7.86778 32.1499 7.19941 31.3432 7.19941C30.5366 7.19941 29.8365 7.87114 29.8365 8.84403C29.8365 9.81692 30.5354 10.4875 31.3432 10.4875C32.1511 10.4875 32.8489 9.81133 32.8489 8.84403ZM34.0247 8.84403C34.032 9.20009 33.968 9.55403 33.8365 9.88511C33.705 10.2162 33.5086 10.5178 33.2589 10.7721C33.0091 11.0265 32.711 11.2286 32.3819 11.3666C32.0529 11.5046 31.6996 11.5756 31.3427 11.5756C30.9858 11.5756 30.6325 11.5046 30.3034 11.3666C29.9744 11.2286 29.6763 11.0265 29.4265 10.7721C29.1767 10.5178 28.9803 10.2162 28.8488 9.88511C28.7173 9.55403 28.6534 9.20009 28.6607 8.84403C28.6607 7.26994 29.8656 6.12912 31.3432 6.12912C32.8209 6.12912 34.0247 7.27666 34.0247 8.84403ZM18.0582 11.5612C15.7324 11.5612 13.7734 9.66802 13.7734 7.34607C13.7734 5.02412 15.7324 3.13432 18.0582 3.13432C18.5943 3.12563 19.1268 3.22419 19.6241 3.42416C20.1215 3.62413 20.5736 3.92148 20.9539 4.29865L20.1405 5.11033C19.5827 4.57196 18.8341 4.27573 18.0582 4.28634C17.657 4.2863 17.2597 4.3658 16.8895 4.52023C16.5193 4.67465 16.1836 4.90092 15.9018 5.18589C15.6199 5.47087 15.3976 5.80887 15.2478 6.18028C15.098 6.55168 15.0236 6.94909 15.0289 7.34943C15.0237 7.74968 15.0982 8.14696 15.2481 8.51824C15.398 8.88952 15.6203 9.22739 15.9022 9.51224C16.184 9.7971 16.5197 10.0233 16.8898 10.1776C17.2599 10.332 17.657 10.4114 18.0582 10.4114C19.1599 10.4114 19.7882 9.96359 20.1899 9.56726C20.5186 9.23924 20.7352 8.76454 20.8182 8.11185H18.0582V6.95983H21.9413C21.9845 7.19655 22.0052 7.43684 22.003 7.67746C22.003 8.54175 21.7651 9.61205 21.0044 10.3711C20.2639 11.1481 19.3148 11.5612 18.0582 11.5612Z" fill="white"/>
<path fill-rule="evenodd" clip-rule="evenodd" d="M50.4688 11.321V4.23535H51.3854L53.8514 8.55122H53.8885L56.3545 4.23535H57.2712V11.321H56.3545V7.11708L56.3916 5.92923H56.3545L54.1364 9.81184H53.6035L51.3854 5.92923H51.3484L51.3854 7.11708V11.321H50.4688Z" fill="white"/>
<path fill-rule="evenodd" clip-rule="evenodd" d="M60.0751 11.4825C59.6049 11.498 59.1457 11.3384 58.787 11.0347C58.6172 10.8907 58.4822 10.7103 58.392 10.5069C58.3019 10.3036 58.2589 10.0825 58.2665 9.86026C58.2588 9.61977 58.3114 9.38118 58.4196 9.16612C58.5277 8.95107 58.688 8.76636 58.8858 8.62875C59.3286 8.32122 59.8589 8.16419 60.3982 8.18093C60.93 8.18093 61.3765 8.27945 61.7109 8.47761V8.34103C61.7179 8.18003 61.6882 8.01953 61.6238 7.87172C61.5595 7.72391 61.4622 7.59266 61.3395 7.48793C61.088 7.27319 60.7661 7.1584 60.4352 7.1655C60.1831 7.16209 59.9348 7.22627 59.716 7.35134C59.5109 7.46719 59.3523 7.65035 59.2672 7.86969L58.437 7.51144C58.5816 7.18593 58.8148 6.90744 59.1102 6.7076C59.4468 6.46018 59.8787 6.33703 60.424 6.33703C60.99 6.31951 61.5422 6.51356 61.9723 6.88113C62.3818 7.23939 62.5916 7.75886 62.5916 8.4138V11.3448H61.7243V10.6731H61.6873C61.5082 10.9315 61.2667 11.1406 60.985 11.2811C60.7034 11.4216 60.3908 11.489 60.0762 11.4769L60.0751 11.4825ZM60.2243 10.6417C60.6108 10.6406 60.9817 10.4896 61.2587 10.2208C61.4012 10.0983 61.5152 9.94635 61.5927 9.77541C61.6702 9.60446 61.7094 9.41869 61.7075 9.23107C61.4472 9.02171 61.0635 8.90976 60.5429 8.90976C60.0941 8.90976 59.7575 9.0094 59.5388 9.19413C59.4356 9.27361 59.3518 9.3753 59.2935 9.4916C59.2353 9.60791 59.204 9.73584 59.2022 9.86586C59.2007 9.97918 59.2283 10.091 59.2826 10.1906C59.3368 10.2902 59.4157 10.3742 59.5118 10.4346C59.7212 10.5775 59.9708 10.6501 60.2243 10.6417Z" fill="white"/>
<path fill-rule="evenodd" clip-rule="evenodd" d="M66.1507 11.4823C65.8057 11.4909 65.4643 11.4099 65.16 11.2472C64.8954 11.1062 64.6696 10.9025 64.5026 10.6539H64.4532L64.4902 11.3256V13.4651H63.5859V6.47347H64.4532V7.1452H64.4902C64.6535 6.89331 64.8802 6.68868 65.1477 6.55184C65.4528 6.39147 65.7936 6.3106 66.1384 6.31673C66.7712 6.31673 67.3041 6.56415 67.7619 7.05787C68.2196 7.5516 68.4429 8.17295 68.4429 8.8973C68.4429 9.62165 68.2185 10.2408 67.7607 10.7401C67.5626 10.9735 67.3158 11.1609 67.0375 11.2891C66.7592 11.4174 66.4561 11.4833 66.1496 11.4823H66.1507ZM66.0026 10.6416C66.2088 10.6428 66.4129 10.6005 66.6014 10.5173C66.79 10.4342 66.9587 10.312 67.0965 10.159C67.4062 9.83772 67.5543 9.41677 67.5543 8.88498C67.5543 8.3532 67.4028 7.93336 67.0965 7.61317C66.9584 7.46226 66.7905 7.34149 66.6033 7.25845C66.4161 7.17541 66.2138 7.13189 66.0089 7.13063C65.8041 7.12936 65.6012 7.17039 65.4131 7.25112C65.2249 7.33185 65.0555 7.45054 64.9155 7.59974C64.6181 7.92217 64.4667 8.342 64.4667 8.87379C64.4667 9.40558 64.6159 9.83884 64.9155 10.1478C65.0468 10.3075 65.2131 10.4351 65.4016 10.5207C65.5901 10.6062 65.7957 10.6476 66.0026 10.6416Z" fill="white"/>
<path fill-rule="evenodd" clip-rule="evenodd" d="M71.0926 11.4821C70.6147 11.4997 70.1442 11.3596 69.7541 11.0836C69.4065 10.832 69.1349 10.4901 68.9688 10.095L69.7867 9.75914C70.0469 10.3659 70.48 10.6749 71.0993 10.6749C71.3445 10.6862 71.5872 10.6213 71.7938 10.4891C71.8791 10.4381 71.9494 10.3654 71.9973 10.2785C72.0452 10.1915 72.0691 10.0934 72.0665 9.99424C72.0665 9.67293 71.8421 9.46245 71.3933 9.35162L70.4149 9.11651C70.0933 9.03092 69.7935 8.87829 69.5353 8.66869C69.3989 8.56349 69.2894 8.4274 69.2161 8.27167C69.1427 8.11593 69.1076 7.94502 69.1135 7.77305C69.1098 7.56538 69.1604 7.36032 69.2603 7.17813C69.3603 6.99593 69.5061 6.84289 69.6834 6.73411C70.0787 6.46298 70.5503 6.32455 71.0298 6.3389C71.4338 6.33088 71.8323 6.43349 72.182 6.63559C72.5142 6.82168 72.7692 7.11974 72.9012 7.47637L72.108 7.79768C71.9475 7.37673 71.5818 7.16513 71.0062 7.16513C70.7676 7.15881 70.5319 7.21848 70.3252 7.33754C70.2412 7.38062 70.1711 7.44642 70.1229 7.5274C70.0747 7.60838 70.0503 7.70127 70.0526 7.79544C70.0526 8.06749 70.2624 8.26565 70.6966 8.36417L71.6626 8.58808C72.1214 8.70004 72.4558 8.87245 72.6791 9.13219C72.8908 9.37046 73.0057 9.67914 73.0011 9.9976C73.0044 10.2077 72.9578 10.4157 72.8652 10.6044C72.7725 10.7931 72.6365 10.9573 72.4681 11.0836C72.0632 11.3579 71.5818 11.4974 71.0926 11.4821Z" fill="white"/>
<path fill-rule="evenodd" clip-rule="evenodd" d="M2.69531 10.3482C3.10142 10.8625 3.46964 11.4054 3.79707 11.9727C4.07756 12.5056 4.19424 12.8684 4.40293 13.5043C4.52522 13.8569 4.64078 13.9644 4.88537 13.9644C5.15239 13.9644 5.27469 13.7841 5.36781 13.5043C5.56303 12.9008 5.71337 12.4407 5.95123 12.0018C6.4202 11.1599 7.01035 10.4121 7.58816 9.69218C7.74411 9.49067 8.75387 8.30394 9.20265 7.3624C9.57273 6.59388 9.76447 5.75202 9.76363 4.89938C9.76855 4.10693 9.58067 3.32513 9.21611 2.62109L7.63191 3.04093L6.66703 5.57223L6.42806 5.91705L6.37757 5.98199L6.3125 6.06148L6.2003 6.19135L6.0421 6.3492L5.18381 7.04668L3.04424 8.28491L2.69531 10.3482Z" fill="#34A853"/>
<path fill-rule="evenodd" clip-rule="evenodd" d="M0.476562 7.1902C1.00164 8.38476 2.00467 9.42818 2.69355 10.3485L6.31409 6.06169C6.13715 6.26977 5.91743 6.43744 5.66984 6.55334C5.42225 6.66924 5.15258 6.73066 4.87911 6.73342C4.63391 6.7349 4.39084 6.68788 4.16396 6.59506C3.93707 6.50224 3.73087 6.36548 3.55727 6.19267C3.38368 6.01986 3.24612 5.81443 3.15256 5.58826C3.059 5.36208 3.01129 5.11965 3.01218 4.87496C3.01771 4.43912 3.16717 4.01727 3.4374 3.6748L0.98032 4.32862L0.476562 7.1902Z" fill="#FBBC04"/>
<path fill-rule="evenodd" clip-rule="evenodd" d="M6.35683 0.223633C6.96815 0.415227 7.53526 0.726068 8.02523 1.13812C8.5152 1.55016 8.91828 2.05521 9.21108 2.62395L6.31419 6.0677C6.58259 5.72423 6.73183 5.30301 6.73941 4.86754C6.73445 4.37677 6.53687 3.90751 6.18908 3.56047C5.8413 3.21343 5.37103 3.01627 4.87921 3.01132C4.60587 3.01473 4.3363 3.0754 4.08794 3.18938C3.83959 3.30335 3.61799 3.46811 3.4375 3.67297V1.50216L6.35683 0.223633Z" fill="#4285F4"/>
<path fill-rule="evenodd" clip-rule="evenodd" d="M1.14062 1.73979C1.59576 1.1948 2.1655 0.756432 2.80943 0.455763C3.45336 0.155095 4.1557 -0.000504432 4.86664 2.73465e-06C5.36991 -0.000523732 5.87036 0.0749682 6.35098 0.223913L3.43951 3.67549H1.37848L1.14062 1.73979Z" fill="#1A73E8"/>
<path fill-rule="evenodd" clip-rule="evenodd" d="M0.475951 7.18936C0.155038 6.46501 -0.0071484 5.68062 0.000241653 4.88868C-0.00393702 3.73866 0.402122 2.62469 1.14576 1.74609L3.44464 3.68068L0.475951 7.18936Z" fill="#EA4335"/>
</g>
<defs>
<clipPath id="clip0_266_4328">
<rect width="73" height="14" fill="white"/>
</clipPath>
</defs>
</svg>
