<svg width="17" height="34" viewBox="0 0 17 34" fill="none" xmlns="http://www.w3.org/2000/svg">
<path fill-rule="evenodd" clip-rule="evenodd" d="M13.28 10.5323C13.9289 11.2048 14.1657 12.1496 14.0542 13.063C13.8926 14.389 13.5099 15.6304 13.0609 16.8819C12.5805 18.2211 12.093 19.5575 11.6029 20.8931C10.8191 23.0302 10.0291 25.165 9.25393 27.3053C9.06132 27.8368 8.92394 28.4045 8.8691 28.966C8.80931 29.5775 9.24915 29.8785 9.8014 29.6071C10.2437 29.3897 10.6742 29.0937 11.0205 28.7435C11.5864 28.1714 12.1497 27.5964 12.6994 27.0085C12.9741 26.7144 13.2459 26.4171 13.5124 26.1153C13.7248 25.8748 13.943 25.5128 14.2345 25.3666C14.7865 25.0896 15.2125 25.7711 15.1125 26.2483C15.0171 26.7047 14.7029 27.1051 14.4137 27.4695L14.3938 27.4945C14.3676 27.5275 14.3415 27.5606 14.3154 27.5937C13.3437 28.8297 12.2782 30.0213 11.0693 31.0287C9.88106 32.0163 8.56172 32.8565 7.1128 33.4013C6.64087 33.5786 6.15731 33.7245 5.6658 33.8362C4.7169 34.0521 3.66834 34.036 2.69859 33.8953C1.98759 33.7921 1.3484 33.3385 1.04704 32.6786C0.523869 31.5329 0.888023 30.118 1.15852 28.9519C1.48988 27.5241 1.98727 26.1648 2.49537 24.7971L2.53398 24.6933L2.55331 24.6413L2.59195 24.5373L2.63059 24.4333C3.21947 22.8482 3.82477 21.2693 4.43201 19.6911C4.98617 18.2515 5.54268 16.8128 6.0911 15.3712C6.13296 15.2611 6.17971 15.1518 6.22691 15.0425L6.24462 15.0016C6.36565 14.7217 6.486 14.4417 6.53106 14.1499C6.63925 13.4498 6.13429 12.8265 5.43341 13.23C4.22181 13.9278 3.31451 14.9653 2.41526 16.0093L2.30591 16.1362C2.02647 16.4607 1.74665 16.7845 1.45754 17.0975C1.17263 17.4062 0.833446 17.7889 0.343562 17.4352C-0.179205 17.0579 -0.0241511 16.574 0.272959 16.1641C1.92302 13.8871 3.90416 11.7572 6.4861 10.5544C7.56511 10.0517 9.07352 9.53993 10.4861 9.52314C11.5451 9.51062 12.5502 9.77618 13.28 10.5323ZM14.9099 0.262551C16.2681 0.791074 17.0001 1.97199 17 3.63452C16.9999 6.63057 13.7637 8.67976 11.0583 7.39674C9.66014 6.73364 8.98011 5.16192 9.31903 3.37692C9.78819 0.904868 12.5735 -0.646471 14.9099 0.262551Z" fill="black" fill-opacity="0.1"/>
</svg>
