<svg width="16" height="16" viewBox="0 0 16 16" fill="none" xmlns="http://www.w3.org/2000/svg">
<g clip-path="url(#clip0_266_4399)">
<path d="M12.2346 2.85447C12.105 2.84427 11.9748 2.86098 11.8521 2.90354C11.7293 2.9461 11.6167 3.01359 11.5213 3.10178C11.4259 3.18996 11.3498 3.29693 11.2977 3.41596C11.2456 3.53499 11.2188 3.66351 11.2188 3.79342C11.2188 3.92334 11.2456 4.05185 11.2977 4.17088C11.3498 4.28991 11.4259 4.39688 11.5213 4.48507C11.6167 4.57325 11.7293 4.64075 11.8521 4.68331C11.9748 4.72587 12.105 4.74258 12.2346 4.73238C12.4708 4.71377 12.6914 4.60678 12.8523 4.43274C13.0131 4.25871 13.1025 4.03042 13.1025 3.79342C13.1025 3.55643 13.0131 3.32814 12.8523 3.1541C12.6914 2.98007 12.4708 2.87308 12.2346 2.85447Z" fill="#fff" fill-opacity="1"/>
<path d="M8.06686 4.06934C7.28724 4.06934 6.52512 4.30052 5.87688 4.73366C5.22865 5.1668 4.72341 5.78243 4.42506 6.50271C4.12671 7.22299 4.04865 8.01557 4.20074 8.78022C4.35284 9.54486 4.72827 10.2472 5.27955 10.7985C5.83082 11.3498 6.5332 11.7252 7.29784 11.8773C8.06249 12.0294 8.85507 11.9514 9.57535 11.653C10.2956 11.3547 10.9113 10.8494 11.3444 10.2012C11.7775 9.55294 12.0087 8.79082 12.0087 8.0112C12.0087 6.96575 11.5934 5.96312 10.8542 5.22388C10.1149 4.48464 9.11231 4.06934 8.06686 4.06934ZM8.06686 10.5345C7.56781 10.5345 7.07996 10.3865 6.66502 10.1092C6.25007 9.83195 5.92666 9.43787 5.73568 8.9768C5.5447 8.51574 5.49473 8.0084 5.59209 7.51893C5.68945 7.02947 5.92977 6.57987 6.28265 6.22699C6.63553 5.8741 7.08514 5.63378 7.5746 5.53642C8.06406 5.43906 8.5714 5.48903 9.03247 5.68001C9.49353 5.87099 9.88761 6.1944 10.1649 6.60935C10.4421 7.0243 10.5901 7.51214 10.5901 8.0112C10.5855 8.67791 10.3178 9.31585 9.8453 9.78621C9.37276 10.2566 8.73359 10.5213 8.06686 10.5228V10.5345Z" fill="#fff" fill-opacity="1"/>
<path d="M11.1919 16H4.79651C3.5238 15.9954 2.30471 15.487 1.40585 14.5859C0.506996 13.6849 0.00152875 12.4646 0 11.1919L0 4.79651C0.00461038 3.5238 0.513031 2.30471 1.41407 1.40585C2.3151 0.506996 3.53542 0.00152875 4.80814 0L11.2035 0C12.4782 0.0015386 13.7003 0.508603 14.6017 1.40997C15.503 2.31134 16.0101 3.53341 16.0116 4.80814V11.2035C16.007 12.4782 15.497 13.6991 14.5934 14.5983C13.6899 15.4974 12.4666 16.0015 11.1919 16ZM4.80814 1.50581C3.93278 1.50735 3.09371 1.85577 2.47474 2.47474C1.85577 3.09371 1.50735 3.93278 1.50581 4.80814V11.2035C1.50735 12.0788 1.85577 12.9179 2.47474 13.5369C3.09371 14.1559 3.93278 14.5043 4.80814 14.5058H11.2035C12.0788 14.5043 12.9179 14.1559 13.5369 13.5369C14.1559 12.9179 14.5043 12.0788 14.5058 11.2035V4.80814C14.5043 3.93278 14.1559 3.09371 13.5369 2.47474C12.9179 1.85577 12.0788 1.50735 11.2035 1.50581H4.80814Z" fill="#fff" fill-opacity="1"/>
</g>
<defs>
<clipPath id="clip0_266_4399">
<rect width="16" height="16" fill="#7E4AD4"/>
</clipPath>
</defs>
</svg>
