<svg width="11" height="14" viewBox="0 0 11 14" fill="none" xmlns="http://www.w3.org/2000/svg">
<path d="M0 5.46144C0 9.28904 3.33496 12.4543 4.8111 13.6679C5.02236 13.8415 5.12926 13.9294 5.28687 13.974C5.4096 14.0087 5.59023 14.0087 5.71296 13.974C5.87087 13.9293 5.97701 13.8423 6.18907 13.668C7.66521 12.4544 11 9.28939 11 5.46179C11 4.01328 10.4206 2.62392 9.38911 1.59967C8.35765 0.575419 6.95879 0 5.5001 0C4.0414 0 2.64238 0.575506 1.61092 1.59976C0.579466 2.62401 0 4.01293 0 5.46144Z" fill="#D9D9D9"/>
<path d="M3.14281 4.7334C3.14281 6.3112 3.92853 7.1001 5.49997 7.1001C7.07141 7.1001 7.85712 6.3112 7.85712 4.7334C7.85712 3.1556 7.07141 2.3667 5.49997 2.3667C3.92853 2.3667 3.14281 3.1556 3.14281 4.7334Z" fill="#222222"/>
</svg>
