<svg width="10" height="11" viewBox="0 0 10 11" fill="none" xmlns="http://www.w3.org/2000/svg">
<path fill-rule="evenodd" clip-rule="evenodd" d="M5.0054 5.36364H4.98922C4.27392 5.36155 3.60304 5.08117 3.10024 4.57473C2.59693 4.06777 2.32073 3.39529 2.32334 2.68052C2.32334 1.20347 3.52629 0 5.0054 0C6.48402 0 7.68696 1.20347 7.68696 2.68208C7.68696 4.1607 6.48402 5.36364 5.0054 5.36364ZM5.0054 0.783167C3.9586 0.783167 3.10651 1.63525 3.10651 2.68208C3.10494 3.18853 3.29969 3.66418 3.65577 4.02234C4.01182 4.38102 4.48538 4.57943 4.99078 4.58047H5.0054C6.05223 4.58047 6.9038 3.72892 6.9038 2.68208C6.9038 1.63525 6.05223 0.783167 5.0054 0.783167ZM5.00307 10.7279C3.96094 10.7279 0.789062 10.7279 0.789062 8.83405C0.789062 7.36863 2.71905 6.13047 5.00307 6.13047C7.28764 6.13047 9.21763 7.36341 9.21763 8.82256C9.21763 10.7279 6.04519 10.7279 5.00307 10.7279ZM5.00307 6.91412C3.06754 6.91412 1.62143 7.92764 1.62143 8.83405C1.62143 9.57068 2.75956 9.94422 5.00307 9.94422C7.24714 9.94422 8.38526 9.56651 8.38526 8.82256C8.38526 7.92189 6.93916 6.91412 5.00307 6.91412Z" fill="white"/>
</svg>
