<svg width="52" height="13" viewBox="0 0 52 13" fill="none" xmlns="http://www.w3.org/2000/svg">
<g clip-path="url(#clip0_266_4374)">
<path fill-rule="evenodd" clip-rule="evenodd" d="M4.56349 2.935H3.83568C2.51238 2.935 1.81859 3.63599 1.81859 4.67559C1.81859 5.85381 2.30065 6.39836 3.29124 7.09935L4.10601 7.67559L1.75243 11.3568H0L2.10972 8.06173C0.892282 7.15282 0.21929 6.27955 0.21929 4.76866C0.209838 2.88945 1.45563 1.61816 3.81866 1.61816H6.17225V11.3588H4.55782V2.935H4.56349ZM12.8266 4.30925V11.3588H11.2367V8.41618H9.10997V11.3588H7.52012V4.30925H9.10997V7.09935H11.2367V4.30925H12.8266ZM20.0102 12.9647H18.5356V11.3528H14.9646V12.9647H13.492V10.038H13.9892C14.5563 8.85975 14.6603 6.63401 14.6603 4.91123V4.30727H19.2994V10.038H20.0102V12.9647ZM17.7114 5.62608H16.027V5.83599C16.027 7.05381 15.9061 8.9746 15.4599 10.0419H17.7095V5.62608H17.7114ZM23.5812 11.4855C21.549 11.4855 20.3958 10.2974 20.3958 7.84193C20.3958 5.71915 21.3221 4.15876 23.2523 4.15876C24.8421 4.15876 25.8724 5.08549 25.8724 7.52509V8.40826H22.0424C22.1086 9.5845 22.5509 10.1588 23.7135 10.1588C24.4583 10.1465 25.1853 9.91823 25.8138 9.49935V10.8617C25.3488 11.1984 24.6001 11.4756 23.5812 11.4756V11.4855ZM22.0424 7.19242H24.2618V7.05381C24.2618 6.17262 24.0198 5.48747 23.2315 5.48747C22.4753 5.48747 22.0859 6.08153 22.0424 7.19242ZM28.5455 7.89539V11.3588H26.9499V4.30925H28.5455V7.55876L30.7951 4.30925H32.4019L30.1523 7.55876L32.7044 11.3528H30.8953L28.5455 7.89539ZM32.6156 7.83797C32.6156 10.1924 33.6458 11.4914 35.7745 11.4974C36.5098 11.4974 37.0316 11.3588 37.4191 11.0617V9.70331C36.9649 10.0328 36.4211 10.1995 35.869 10.1786C34.7347 10.1786 34.2621 9.24985 34.2621 7.80232C34.2621 6.27163 34.8387 5.48747 35.8784 5.48747C36.4192 5.49199 36.9497 5.642 37.4191 5.92311V4.50133C37.0864 4.30331 36.4966 4.1647 35.7083 4.1647C33.6723 4.15876 32.6137 5.68945 32.6137 7.83797H32.6156Z" fill="white"/>
<path fill-rule="evenodd" clip-rule="evenodd" d="M47.0324 0C46.0509 0.000836286 45.0917 0.30631 44.2758 0.877844C43.4599 1.44938 42.824 2.26134 42.4484 3.21119C42.0727 4.16105 41.9743 5.20619 42.1653 6.21464C42.3564 7.22309 42.8285 8.14962 43.5219 8.87723C44.4199 9.81782 46.5371 11.1802 46.6619 12.6119C46.6783 12.7025 46.7244 12.7843 46.7922 12.8431C46.86 12.902 46.9453 12.9342 47.0334 12.9342C47.1214 12.9342 47.2067 12.902 47.2745 12.8431C47.3424 12.7843 47.3884 12.7025 47.4048 12.6119C47.5296 11.1802 49.6431 9.8198 50.543 8.87921C51.2371 8.15171 51.7097 7.225 51.9011 6.21622C52.0926 5.20743 51.9942 4.16183 51.6185 3.21157C51.2428 2.26131 50.6066 1.44904 49.7903 0.877409C48.9741 0.305778 48.0143 0.000445789 47.0324 0Z" fill="#FF4433"/>
<path opacity="0.25" fill-rule="evenodd" clip-rule="evenodd" d="M47.038 7.02551C47.3828 7.0259 47.7199 6.91916 48.0068 6.71878C48.2937 6.5184 48.5174 6.2334 48.6496 5.89982C48.7818 5.56624 48.8166 5.19909 48.7496 4.8448C48.6825 4.49051 48.5167 4.16501 48.273 3.90947C48.0293 3.65394 47.7187 3.47986 47.3806 3.40925C47.0424 3.33864 46.6919 3.37468 46.3733 3.51281C46.0547 3.65094 45.7824 3.88495 45.5907 4.18523C45.3991 4.48552 45.2969 4.83858 45.2969 5.19977C45.2969 5.68364 45.4802 6.14773 45.8067 6.49006C46.1332 6.8324 46.576 7.02498 47.038 7.02551Z" fill="black"/>
</g>
<defs>
<clipPath id="clip0_266_4374">
<rect width="52" height="13" fill="white"/>
</clipPath>
</defs>
</svg>
